<mxfile host="app.diagrams.net" modified="2021-02-20T16:08:10.860Z" agent="5.0 (Windows NT 10.0; Win64; x64) AppleWebKit/537.36 (KHTML, like Gecko) Chrome/87.0.4280.141 Safari/537.36" etag="umPtib75rlldIiHBnjtv" version="14.3.2" type="github">
  <diagram id="C5RBs43oDa-KdzZeNtuy" name="Page-1">
    <mxGraphModel dx="868" dy="450" grid="1" gridSize="10" guides="1" tooltips="1" connect="1" arrows="1" fold="1" page="1" pageScale="1" pageWidth="827" pageHeight="1169" math="0" shadow="0">
      <root>
        <mxCell id="WIyWlLk6GJQsqaUBKTNV-0" />
        <mxCell id="WIyWlLk6GJQsqaUBKTNV-1" parent="WIyWlLk6GJQsqaUBKTNV-0" />
        <mxCell id="i5yhpqyY9H8_3mfMsvZb-0" value="Actor" style="shape=umlActor;verticalLabelPosition=bottom;verticalAlign=top;html=1;outlineConnect=0;" parent="WIyWlLk6GJQsqaUBKTNV-1" vertex="1">
          <mxGeometry x="140" y="160" width="30" height="60" as="geometry" />
        </mxCell>
        <mxCell id="i5yhpqyY9H8_3mfMsvZb-1" value="Login" style="ellipse;whiteSpace=wrap;html=1;" parent="WIyWlLk6GJQsqaUBKTNV-1" vertex="1">
          <mxGeometry x="260" y="90" width="80" height="50" as="geometry" />
        </mxCell>
        <mxCell id="i5yhpqyY9H8_3mfMsvZb-2" value="Create post" style="ellipse;whiteSpace=wrap;html=1;" parent="WIyWlLk6GJQsqaUBKTNV-1" vertex="1">
          <mxGeometry x="260" y="160" width="80" height="50" as="geometry" />
        </mxCell>
        <mxCell id="i5yhpqyY9H8_3mfMsvZb-5" value="Choose post" style="ellipse;whiteSpace=wrap;html=1;" parent="WIyWlLk6GJQsqaUBKTNV-1" vertex="1">
          <mxGeometry x="260" y="230" width="80" height="50" as="geometry" />
        </mxCell>
        <mxCell id="i5yhpqyY9H8_3mfMsvZb-9" value="" style="endArrow=none;html=1;entryX=0;entryY=0.5;entryDx=0;entryDy=0;" parent="WIyWlLk6GJQsqaUBKTNV-1" source="i5yhpqyY9H8_3mfMsvZb-0" target="i5yhpqyY9H8_3mfMsvZb-1" edge="1">
          <mxGeometry width="50" height="50" relative="1" as="geometry">
            <mxPoint x="360" y="235" as="sourcePoint" />
            <mxPoint x="430" y="235" as="targetPoint" />
          </mxGeometry>
        </mxCell>
        <mxCell id="i5yhpqyY9H8_3mfMsvZb-10" value="" style="endArrow=none;html=1;entryX=0;entryY=0.5;entryDx=0;entryDy=0;" parent="WIyWlLk6GJQsqaUBKTNV-1" source="i5yhpqyY9H8_3mfMsvZb-0" target="i5yhpqyY9H8_3mfMsvZb-2" edge="1">
          <mxGeometry width="50" height="50" relative="1" as="geometry">
            <mxPoint x="180" y="193.57142857142856" as="sourcePoint" />
            <mxPoint x="270" y="155" as="targetPoint" />
          </mxGeometry>
        </mxCell>
        <mxCell id="i5yhpqyY9H8_3mfMsvZb-11" value="" style="endArrow=none;html=1;entryX=0;entryY=0.5;entryDx=0;entryDy=0;" parent="WIyWlLk6GJQsqaUBKTNV-1" source="i5yhpqyY9H8_3mfMsvZb-0" edge="1" target="i5yhpqyY9H8_3mfMsvZb-5">
          <mxGeometry width="50" height="50" relative="1" as="geometry">
            <mxPoint x="190" y="203.57142857142856" as="sourcePoint" />
            <mxPoint x="260" y="295" as="targetPoint" />
          </mxGeometry>
        </mxCell>
        <mxCell id="mmJNQ6993l0NhSO0F01J-0" value="Change profile" style="ellipse;whiteSpace=wrap;html=1;" vertex="1" parent="WIyWlLk6GJQsqaUBKTNV-1">
          <mxGeometry x="260" y="300" width="80" height="50" as="geometry" />
        </mxCell>
        <mxCell id="mmJNQ6993l0NhSO0F01J-1" value="" style="endArrow=none;html=1;entryX=0;entryY=0.5;entryDx=0;entryDy=0;exitX=1;exitY=1;exitDx=0;exitDy=0;exitPerimeter=0;" edge="1" parent="WIyWlLk6GJQsqaUBKTNV-1" target="mmJNQ6993l0NhSO0F01J-0" source="i5yhpqyY9H8_3mfMsvZb-0">
          <mxGeometry width="50" height="50" relative="1" as="geometry">
            <mxPoint x="170" y="279.9957142857143" as="sourcePoint" />
            <mxPoint x="260" y="375.71" as="targetPoint" />
          </mxGeometry>
        </mxCell>
      </root>
    </mxGraphModel>
  </diagram>
</mxfile>
